<?xml version="1.0" encoding="UTF-8"?>
<svg version="1.1" xmlns="http://www.w3.org/2000/svg" width="96" height="96">
<path d="M0 0 C1.24148804 -0.0237545 1.24148804 -0.0237545 2.50805664 -0.04798889 C3.8363147 -0.04054909 3.8363147 -0.04054909 5.19140625 -0.03295898 C6.10849365 -0.03915756 7.02558105 -0.04535614 7.97045898 -0.05174255 C9.90705301 -0.05883815 11.84370807 -0.05567123 13.78027344 -0.04296875 C16.74397912 -0.02909919 19.70452959 -0.06318044 22.66796875 -0.10131836 C24.55078202 -0.10226954 26.43359925 -0.1004108 28.31640625 -0.09545898 C29.64466431 -0.1153463 29.64466431 -0.1153463 30.99975586 -0.13563538 C37.15100596 -0.04248792 37.15100596 -0.04248792 40.28125 2.94775391 C41.14070527 4.45678753 41.97726659 5.98016794 42.75390625 7.53344727 C44.2219873 7.54746582 44.2219873 7.54746582 45.71972656 7.56176758 C49.35804416 7.60170185 52.99551916 7.66746861 56.63330078 7.7409668 C58.20643269 7.7691568 59.77970572 7.79038125 61.35302734 7.80444336 C63.61759581 7.82590168 65.88047129 7.87256074 68.14453125 7.92407227 C68.84572083 7.9253009 69.5469104 7.92652954 70.26934814 7.92779541 C73.46507881 8.023218 75.37832268 8.2432708 77.93927002 10.22186279 C80.17007155 13.06358175 80.25978518 14.48444858 80.27148438 18.06469727 C80.28409302 19.17264648 80.29670166 20.2805957 80.30969238 21.42211914 C80.30159546 22.61385742 80.29349854 23.8055957 80.28515625 25.03344727 C80.29089661 26.87519531 80.29089661 26.87519531 80.29675293 28.75415039 C80.29947467 31.34986186 80.29209536 33.94560063 80.27539062 36.54125977 C80.253987 40.51844326 80.27518588 44.49382008 80.30078125 48.47094727 C80.29813802 50.99178459 80.29301316 53.5126208 80.28515625 56.03344727 C80.29325317 57.22518555 80.3013501 58.41692383 80.30969238 59.64477539 C80.29708374 60.75272461 80.2844751 61.86067383 80.27148438 63.00219727 C80.268302 63.97608398 80.26511963 64.9499707 80.26184082 65.95336914 C79.57977797 69.41794028 78.66200324 70.53229302 75.75390625 72.53344727 C73.04010879 72.92827633 70.73139415 73.08121227 68.01953125 73.05102539 C67.24508667 73.05803467 66.47064209 73.06504395 65.67272949 73.07226562 C63.11608893 73.08985226 60.56055781 73.07822115 58.00390625 73.06469727 C56.22558378 73.067392 54.44726274 73.07127427 52.66894531 73.07629395 C48.94321657 73.08218988 45.21787161 73.07362313 41.4921875 73.05493164 C36.71691338 73.03214185 31.94253849 73.04526445 27.16729736 73.0692215 C23.49553657 73.08367701 19.8239889 73.07907466 16.15222168 73.06871033 C14.39155979 73.06604235 12.63087854 73.06931531 10.87023926 73.07862854 C8.40906538 73.08879034 5.94934675 73.07329979 3.48828125 73.05102539 C2.76088745 73.05912231 2.03349365 73.06721924 1.28405762 73.07556152 C-1.97805152 73.0208773 -3.96258112 72.72323228 -6.69714355 70.8927002 C-8.70104249 67.84050107 -8.75328647 65.90981221 -8.76367188 62.26782227 C-8.77628052 60.99970703 -8.78888916 59.7315918 -8.80187988 58.42504883 C-8.79472005 57.04450931 -8.78651606 55.66397488 -8.77734375 54.28344727 C-8.78003937 52.86384821 -8.78392238 51.44425095 -8.78894043 50.0246582 C-8.79483233 47.05214832 -8.78628329 44.08011985 -8.76757812 41.10766602 C-8.74478775 37.3008594 -8.75791263 33.49518077 -8.78186798 29.68841553 C-8.79633489 26.7578077 -8.7917161 23.82746652 -8.78135681 20.89685059 C-8.77869194 19.49344753 -8.78195092 18.09002012 -8.79127502 16.68664551 C-8.80145316 14.72412592 -8.78318415 12.76152125 -8.76367188 10.79907227 C-8.7604895 9.68306641 -8.75730713 8.56706055 -8.75402832 7.41723633 C-7.86601823 2.37557559 -5.05975196 0.04324905 0 0 Z M-0.24609375 8.53344727 C-0.24609375 27.01344727 -0.24609375 45.49344727 -0.24609375 64.53344727 C2.39390625 64.53344727 5.03390625 64.53344727 7.75390625 64.53344727 C7.75390625 63.21344727 7.75390625 61.89344727 7.75390625 60.53344727 C10.39390625 60.53344727 13.03390625 60.53344727 15.75390625 60.53344727 C15.75390625 61.85344727 15.75390625 63.17344727 15.75390625 64.53344727 C28.95390625 64.53344727 42.15390625 64.53344727 55.75390625 64.53344727 C55.75390625 63.21344727 55.75390625 61.89344727 55.75390625 60.53344727 C58.39390625 60.53344727 61.03390625 60.53344727 63.75390625 60.53344727 C63.75390625 61.85344727 63.75390625 63.17344727 63.75390625 64.53344727 C66.39390625 64.53344727 69.03390625 64.53344727 71.75390625 64.53344727 C71.75390625 48.69344727 71.75390625 32.85344727 71.75390625 16.53344727 C60.41547394 16.48164569 60.41547394 16.48164569 49.07714844 16.50585938 C47.65165036 16.48524919 46.22618616 16.46206615 44.80078125 16.43579102 C44.06553223 16.45001099 43.3302832 16.46423096 42.57275391 16.47888184 C40.42089844 16.41992188 40.42089844 16.41992188 36.75390625 15.53344727 C34.77390625 12.06844727 34.77390625 12.06844727 32.75390625 8.53344727 C21.86390625 8.53344727 10.97390625 8.53344727 -0.24609375 8.53344727 Z " fill="#777777" transform="translate(12.24609375,11.466552734375)"/>
<path d="M0 0 C0.69931641 -0.020625 1.39863281 -0.04125 2.11914062 -0.0625 C6.91804328 -0.09841321 10.11040737 0.73914475 14.1875 3.25 C16.1875 5.25 16.1875 5.25 16.1875 12.25 C5.6275 12.25 -4.9325 12.25 -15.8125 12.25 C-15.8125 5.25 -15.8125 5.25 -13.5 2.875 C-9.01303247 0.16194987 -5.10288516 0.03701095 0 0 Z " fill="#777777" transform="translate(35.8125,51.75)"/>
<path d="M0 0 C2.5 1.5 2.5 1.5 4 4 C4.791013 8.02098277 4.62153384 10.96411027 2.5 14.5 C-1.03588973 16.62153384 -3.97901723 16.791013 -8 16 C-10.5 14.5 -10.5 14.5 -12 12 C-12.791013 7.97901723 -12.62153384 5.03588973 -10.5 1.5 C-6.96411027 -0.62153384 -4.02098277 -0.791013 0 0 Z " fill="#777777" transform="translate(40,32)"/>
<path d="M0 0 C5.28 0 10.56 0 16 0 C16 2.64 16 5.28 16 8 C10.72 8 5.44 8 0 8 C0 5.36 0 2.72 0 0 Z " fill="#787878" transform="translate(60,56)"/>
<path d="M0 0 C5.28 0 10.56 0 16 0 C16 2.64 16 5.28 16 8 C10.72 8 5.44 8 0 8 C0 5.36 0 2.72 0 0 Z " fill="#787878" transform="translate(60,40)"/>
</svg>
