<?xml version="1.0" encoding="UTF-8"?>
<svg version="1.1" xmlns="http://www.w3.org/2000/svg" width="100" height="100">
<path d="M0 0 C3.9187061 1.14355404 6.42001271 3.19015407 9.38671875 5.87109375 C13.63640056 9.59776391 13.63640056 9.59776391 18.19921875 12.93359375 C18.52921875 11.94359375 18.85921875 10.95359375 19.19921875 9.93359375 C23.15921875 9.93359375 27.11921875 9.93359375 31.19921875 9.93359375 C31.10898438 10.81660156 31.01875 11.69960937 30.92578125 12.609375 C30.61065462 19.55574661 30.61065462 19.55574661 33.60449219 25.59570312 C36.00179527 27.71499963 38.50512618 29.54239546 41.18212891 31.29223633 C46.04715826 34.47804587 46.04715826 34.47804587 47.13671875 37.7421875 C47.15734375 38.46535156 47.17796875 39.18851563 47.19921875 39.93359375 C45.21921875 39.60359375 43.23921875 39.27359375 41.19921875 38.93359375 C41.19921875 56.42359375 41.19921875 73.91359375 41.19921875 91.93359375 C13.47921875 91.93359375 -14.24078125 91.93359375 -42.80078125 91.93359375 C-42.80078125 74.44359375 -42.80078125 56.95359375 -42.80078125 38.93359375 C-45.77078125 39.42859375 -45.77078125 39.42859375 -48.80078125 39.93359375 C-48.70510478 37.30727471 -48.3397518 35.51350138 -46.52148438 33.55712891 C-44.74064676 32.05527506 -42.91560111 30.64236361 -41.05078125 29.24609375 C-40.374104 28.72281494 -39.69742676 28.19953613 -39.00024414 27.66040039 C-36.94262396 26.0728182 -34.8725503 24.50264304 -32.80078125 22.93359375 C-31.66816159 22.06263852 -30.53657155 21.1903419 -29.40625 20.31640625 C-27.30386507 18.69195279 -25.19662763 17.07468696 -23.0859375 15.4609375 C-18.81623805 12.18867317 -14.59716897 8.85180176 -10.38061523 5.51147461 C-3.30269235 -0.07830651 -3.30269235 -0.07830651 0 0 Z M-7.55078125 10.24609375 C-8.40990112 10.91680908 -8.40990112 10.91680908 -9.28637695 11.60107422 C-11.1280797 13.04075557 -12.96441009 14.48712053 -14.80078125 15.93359375 C-16.00747616 16.87803406 -17.21450391 17.82204927 -18.421875 18.765625 C-22.62929431 22.04356668 -22.62929431 22.04356668 -26.7881012 25.38240051 C-28.80078125 26.93359375 -28.80078125 26.93359375 -31.30375671 28.52548218 C-36.68016276 32.15035797 -36.68016276 32.15035797 -39.6806488 37.69497681 C-39.95605009 40.94308952 -39.92766729 44.05233663 -39.77734375 47.30859375 C-39.76319427 48.47366455 -39.7490448 49.63873535 -39.73446655 50.83911133 C-39.67873292 54.53994879 -39.5533326 58.23460474 -39.42578125 61.93359375 C-39.37559341 64.45043304 -39.32997082 66.96736778 -39.2890625 69.484375 C-39.18764518 75.63837778 -38.99204601 81.77911871 -38.80078125 87.93359375 C-30.88078125 87.93359375 -22.96078125 87.93359375 -14.80078125 87.93359375 C-14.80078125 75.39359375 -14.80078125 62.85359375 -14.80078125 49.93359375 C-5.56078125 49.93359375 3.67921875 49.93359375 13.19921875 49.93359375 C13.19921875 62.47359375 13.19921875 75.01359375 13.19921875 87.93359375 C21.11921875 87.93359375 29.03921875 87.93359375 37.19921875 87.93359375 C37.47580849 80.5629894 37.71415748 73.21054162 37.85839844 65.83886719 C37.91853012 63.33596652 38.000265 60.83348368 38.10449219 58.33203125 C39.45711012 44.02737991 39.45711012 44.02737991 34.703125 31.18481445 C31.86193924 28.52874626 28.64278136 26.72755213 25.19921875 24.93359375 C23.97713577 24.01569737 22.77291536 23.07239023 21.60546875 22.0859375 C17.72656169 19.12887995 17.72656169 19.12887995 13.84130859 16.18017578 C12.14903618 14.89549797 10.46485697 13.60069458 8.78125 12.3046875 C7.69166746 11.47231422 6.60183326 10.64027022 5.51171875 9.80859375 C4.05185547 8.69097656 4.05185547 8.69097656 2.5625 7.55078125 C-1.88596385 4.50670847 -3.86697049 7.33170361 -7.55078125 10.24609375 Z M23.19921875 13.93359375 C23.52921875 15.58359375 23.85921875 17.23359375 24.19921875 18.93359375 C25.18921875 19.26359375 26.17921875 19.59359375 27.19921875 19.93359375 C27.19921875 17.95359375 27.19921875 15.97359375 27.19921875 13.93359375 C25.87921875 13.93359375 24.55921875 13.93359375 23.19921875 13.93359375 Z M-10.80078125 53.93359375 C-10.80078125 65.15359375 -10.80078125 76.37359375 -10.80078125 87.93359375 C-4.20078125 87.93359375 2.39921875 87.93359375 9.19921875 87.93359375 C9.19921875 76.71359375 9.19921875 65.49359375 9.19921875 53.93359375 C2.59921875 53.93359375 -4.00078125 53.93359375 -10.80078125 53.93359375 Z " fill="#777777" transform="translate(50.80078125,2.06640625)"/>
</svg>
