<?xml version="1.0" encoding="UTF-8"?>
<svg version="1.1" xmlns="http://www.w3.org/2000/svg" width="100" height="100">
<path d="M0 0 C1.05960938 0.02707031 2.11921875 0.05414063 3.2109375 0.08203125 C4.00757813 0.11683594 4.80421875 0.15164062 5.625 0.1875 C3.405436 4.93938475 0.610783 8.25333523 -4.21484375 10.5234375 C-7.70232682 12.35986245 -9.9495016 14.42890605 -12.6875 17.25 C-13.54988281 18.12785156 -14.41226562 19.00570312 -15.30078125 19.91015625 C-18.39657597 23.30911731 -18.7370666 25.58416997 -18.64453125 30.2109375 C-18.48040419 32.38386125 -18.48040419 32.38386125 -16.875 34.6875 C-14.11904301 36.3410742 -11.90227895 37.05178782 -8.6640625 36.90625 C-1.27030604 34.58466094 5.31266985 26.20894373 9.0625 19.6875 C10.91452405 16.72426151 13.02896932 14.51727112 15.625 12.1875 C16.285 12.1875 16.945 12.1875 17.625 12.1875 C17.73452536 14.040304 17.81127186 15.89505601 17.875 17.75 C17.92140625 18.78253906 17.9678125 19.81507812 18.015625 20.87890625 C17.18049495 27.95245781 12.64251204 32.65590133 7.75 37.4375 C7.24597656 37.953125 6.74195313 38.46875 6.22265625 39 C1.3338391 43.85130705 -3.23640239 46.61570158 -10.3125 46.625 C-15.91009263 46.47240144 -18.94774621 45.6001748 -23.375 42.1875 C-27.49139878 37.74612237 -28.54335677 34.4156509 -28.6875 28.4375 C-28.72488281 27.43203125 -28.76226563 26.4265625 -28.80078125 25.390625 C-27.87000793 18.38847709 -23.35915795 13.68650071 -18.5 8.9375 C-17.99597656 8.421875 -17.49195313 7.90625 -16.97265625 7.375 C-11.8665937 2.3081144 -7.38495258 -0.24616509 0 0 Z " fill="#777777" transform="translate(36.375,45.8125)"/>
<path d="M0 0 C4.85503811 2.57956668 8.08027514 6.08848167 9.80859375 11.2734375 C9.9791001 13.18534477 10.07482495 15.10450003 10.12109375 17.0234375 C10.17716797 18.53164063 10.17716797 18.53164063 10.234375 20.0703125 C9.30360168 27.07246041 4.7927517 31.77443679 -0.06640625 36.5234375 C-0.57042969 37.0390625 -1.07445312 37.5546875 -1.59375 38.0859375 C-5.68065757 42.14148772 -9.47741209 45.0258103 -15.40234375 45.56640625 C-16.44648437 45.53160156 -17.490625 45.49679688 -18.56640625 45.4609375 C-19.62601563 45.43386719 -20.685625 45.40679687 -21.77734375 45.37890625 C-22.57398438 45.34410156 -23.370625 45.30929688 -24.19140625 45.2734375 C-21.99932098 40.58038221 -19.24900318 37.20870883 -14.44140625 35.0234375 C-8.61422659 31.88572537 -3.84901162 26.75984556 -0.19140625 21.2734375 C0.38228759 15.7262255 0.38228759 15.7262255 -1.69140625 10.7734375 C-4.50238971 9.08684742 -6.7532337 8.52409952 -10.04296875 8.6953125 C-17.36844899 10.66653264 -24.00099346 19.59354401 -27.75390625 25.8984375 C-29.53345256 28.83855749 -31.64010615 30.98380921 -34.19140625 33.2734375 C-34.85140625 33.2734375 -35.51140625 33.2734375 -36.19140625 33.2734375 C-36.30093161 31.4206335 -36.37767811 29.56588149 -36.44140625 27.7109375 C-36.4878125 26.67839844 -36.53421875 25.64585938 -36.58203125 24.58203125 C-35.7469012 17.50847969 -31.20891829 12.80503617 -26.31640625 8.0234375 C-25.81238281 7.5078125 -25.30835938 6.9921875 -24.7890625 6.4609375 C-17.87173314 -0.40331772 -9.5832558 -3.17733615 0 0 Z " fill="#777777" transform="translate(82.19140625,8.7265625)"/>
<path d="M0 0 C2.4375 1.25 2.4375 1.25 3.4375 4.25 C0.55929257 10.31057973 -4.70364076 14.72627795 -9.39575195 19.39892578 C-11.00041515 21.00041433 -12.59125495 22.6148155 -14.18164062 24.23046875 C-15.20231402 25.25341398 -16.22377198 26.27557713 -17.24609375 27.296875 C-18.16962646 28.22338867 -19.09315918 29.14990234 -20.04467773 30.10449219 C-23.60286108 33.1365212 -23.60286108 33.1365212 -26.5625 33.25 C-28.8125 31.3125 -28.8125 31.3125 -30.5625 29.25 C-29.1403261 24.65930632 -26.55277858 21.83042157 -23.1875 18.546875 C-22.66236816 18.02361633 -22.13723633 17.50035767 -21.59619141 16.96124268 C-20.49015529 15.86190359 -19.38053968 14.7661554 -18.26757812 13.67382812 C-16.56112943 11.99865455 -14.86569551 10.31293238 -13.171875 8.625 C-12.09437249 7.55666347 -11.01626811 6.48893356 -9.9375 5.421875 C-9.42912598 4.91775085 -8.92075195 4.41362671 -8.39697266 3.89422607 C-3.40496493 -0.9965751 -3.40496493 -0.9965751 0 0 Z " fill="#777777" transform="translate(63.5625,33.75)"/>
</svg>
