<?xml version="1.0" encoding="UTF-8"?>
<svg version="1.1" xmlns="http://www.w3.org/2000/svg" width="96" height="96">
<path d="M0 0 C3.0625 2.4375 3.0625 2.4375 5 6 C5 10.62 5 15.24 5 20 C-18.76 20 -42.52 20 -67 20 C-67 5 -67 5 -63.8125 0.875 C-46.22694647 -11.30927637 -17.67189996 -12.47852527 0 0 Z M-58 9 C-58.33 9.99 -58.66 10.98 -59 12 C-40.52 12 -22.04 12 -3 12 C-5.1258322 7.74833561 -5.64873001 7.29233338 -9.6875 5.375 C-10.51636719 4.97023438 -11.34523437 4.56546875 -12.19921875 4.1484375 C-18.43040661 1.59338976 -24.0223146 0.61072765 -30.6875 0.625 C-31.47479492 0.62661133 -32.26208984 0.62822266 -33.07324219 0.62988281 C-42.16208916 0.81915647 -50.92258441 3.07027342 -58 9 Z " fill="#777777" transform="translate(79,64)"/>
<path d="M0 0 C4.8846525 2.26787438 7.73212562 5.1153475 10 10 C10.75381535 15.5997712 10.77303575 20.33499991 8.375 25.5 C3.80134327 30.3143755 0.6912538 32.25156236 -6 32.5 C-12.6912538 32.25156236 -15.80134327 30.3143755 -20.375 25.5 C-22.77303575 20.33499991 -22.75381535 15.5997712 -22 10 C-17.52212837 0.3553534 -9.85292056 -1.32635469 0 0 Z M-11.375 10.625 C-13.48706506 13.71186432 -13.61195145 15.3282913 -13 19 C-11.5 21.5 -11.5 21.5 -9 23 C-5.3282913 23.61195145 -3.71186432 23.48706506 -0.625 21.375 C1.48706506 18.28813568 1.61195145 16.6717087 1 13 C-0.5 10.5 -0.5 10.5 -3 9 C-6.6717087 8.38804855 -8.28813568 8.51293494 -11.375 10.625 Z " fill="#777777" transform="translate(54,12)"/>
</svg>
