<?xml version="1.0" encoding="UTF-8"?>
<svg version="1.1" xmlns="http://www.w3.org/2000/svg" width="100" height="100">
<path d="M0 0 C0.69738281 0.00451172 1.39476562 0.00902344 2.11328125 0.01367188 C3.82555803 0.0253998 5.53779033 0.04333347 7.25 0.0625 C6.59 1.7125 5.93 3.3625 5.25 5.0625 C4.52296875 5.07667969 3.7959375 5.09085938 3.046875 5.10546875 C-8.83590499 5.66913908 -19.2010564 9.61553187 -27.75 18.0625 C-30.11259326 20.90078318 -31.98082131 23.82527943 -33.75 27.0625 C-34.16378906 27.77664062 -34.57757813 28.49078125 -35.00390625 29.2265625 C-39.35245876 38.04488152 -39.23004131 49.17507905 -36.8671875 58.57421875 C-32.83109126 69.01193784 -26.56446499 76.69878076 -16.75 82.0625 C-16.03585938 82.47628906 -15.32171875 82.89007813 -14.5859375 83.31640625 C-5.76761848 87.66495876 5.36257905 87.54254131 14.76171875 85.1796875 C25.19438357 81.14554566 32.89446285 74.87827173 38.25 65.0625 C38.66378906 64.33675781 39.07757813 63.61101562 39.50390625 62.86328125 C44.38436533 52.84728683 42.7297353 40.7695278 41.25 30.0625 C42.57 29.4025 43.89 28.7425 45.25 28.0625 C47.91500008 34.19129328 48.76765169 39.21541268 48.6875 45.875 C48.67992676 46.75647705 48.67235352 47.6379541 48.66455078 48.54614258 C48.32392709 62.03558666 42.3676913 72.82077915 32.734375 82.13671875 C20.38763729 91.70738179 7.38025678 93.20177046 -7.75 92.0625 C-18.64535121 89.90072397 -28.97965203 82.79666087 -35.75 74.0625 C-43.66716053 61.03687678 -46.05385899 47.67394933 -43.06640625 32.6171875 C-38.7584863 20.06880657 -30.32481867 10.00989554 -18.5 4.125 C-11.89699403 0.96045893 -7.28748916 -0.08954382 0 0 Z " fill="#000000" transform="translate(47.75,3.9375)"/>
<path d="M0 0 C0.66 -0.33 1.32 -0.66 2 -1 C7.03671207 -1.55258891 10.92140903 -1.53929549 15.5 0.75 C18.54259388 3.48833449 19.74458833 5.44051531 20.40625 9.48046875 C20.61525457 15.51547578 20.00101376 19.77675708 16.3125 24.64453125 C13.22784515 27.78650232 9.9305141 30.51232324 6.4375 33.1875 C5.78837646 33.69410156 5.13925293 34.20070312 4.47045898 34.72265625 C2.67953136 36.01799708 1.02760428 37.12037113 -1 38 C-3.59375 37.5546875 -3.59375 37.5546875 -6 36 C-6.95777344 35.39027344 -7.91554688 34.78054687 -8.90234375 34.15234375 C-22.96484628 23.89051758 -22.96484628 23.89051758 -24.4921875 15.19921875 C-24.7048298 10.57737586 -24.30650193 7.62395037 -22.25 3.4375 C-16.2069742 -3.10911128 -8.08159189 -1.41427858 0 0 Z M-17.5 5.5 C-19.60112205 9.00187009 -19.73078782 12.07962786 -19 16 C-15.83465825 22.46257275 -9.90243912 27.06504059 -4 31 C1.29618253 31 5.19906359 27.32485952 9 24 C13.3007416 19.50905361 15.39747057 16.37352872 15.26953125 9.9765625 C15.10540419 7.80363875 15.10540419 7.80363875 13.5 5.5 C9.98957483 3.3937449 6.99543111 3.1648894 3 4 C0.45354496 5.70960406 0.45354496 5.70960406 -1 8 C-1 8.66 -1 9.32 -1 10 C-1.66 10 -2.32 10 -3 10 C-3.28875 9.38125 -3.5775 8.7625 -3.875 8.125 C-4.93720042 5.86674235 -4.93720042 5.86674235 -7 4 C-12.54235245 3.42765564 -12.54235245 3.42765564 -17.5 5.5 Z " fill="#000000" transform="translate(80,1)"/>
<path d="M0 0 C4.34566953 0.50318279 6.28820468 1.83277934 9.375 4.875 C16.44442911 11.3312053 22.14310147 12.59062893 31.6328125 12.33984375 C39.70827976 11.52480239 44.28655946 7.16360686 49.921875 1.609375 C52 0 52 0 56 0 C56 3.16223748 55.56811179 5.30732894 53.5390625 7.78125 C45.51520817 15.24834709 36.96098604 18.78729414 25.99438477 18.66430664 C16.66831012 18.14761121 9.17183277 13.53937512 2.3046875 7.4921875 C0.78536342 5.75451745 -0.16223531 4.1505506 -1 2 C-0.67 1.34 -0.34 0.68 0 0 Z " fill="#000000" transform="translate(22,58)"/>
<path d="M0 0 C0.70125 0.00515625 1.4025 0.0103125 2.125 0.015625 C2.82625 0.01046875 3.5275 0.0053125 4.25 0 C6.125 0.265625 6.125 0.265625 8.125 2.265625 C8.390625 4.140625 8.390625 4.140625 8.375 6.265625 C8.38015625 6.966875 8.3853125 7.668125 8.390625 8.390625 C8.125 10.265625 8.125 10.265625 6.125 12.265625 C4.25 12.53125 4.25 12.53125 2.125 12.515625 C1.42375 12.52078125 0.7225 12.5259375 0 12.53125 C-1.875 12.265625 -1.875 12.265625 -3.875 10.265625 C-4.140625 8.390625 -4.140625 8.390625 -4.125 6.265625 C-4.13015625 5.564375 -4.1353125 4.863125 -4.140625 4.140625 C-3.75603481 1.4258707 -2.7147543 0.38459019 0 0 Z " fill="#000000" transform="translate(63.875,35.734375)"/>
<path d="M0 0 C0.70125 0.00515625 1.4025 0.0103125 2.125 0.015625 C2.82625 0.01046875 3.5275 0.0053125 4.25 0 C6.125 0.265625 6.125 0.265625 8.125 2.265625 C8.390625 4.140625 8.390625 4.140625 8.375 6.265625 C8.38015625 6.966875 8.3853125 7.668125 8.390625 8.390625 C8.125 10.265625 8.125 10.265625 6.125 12.265625 C4.25 12.53125 4.25 12.53125 2.125 12.515625 C1.42375 12.52078125 0.7225 12.5259375 0 12.53125 C-1.875 12.265625 -1.875 12.265625 -3.875 10.265625 C-4.140625 8.390625 -4.140625 8.390625 -4.125 6.265625 C-4.13015625 5.564375 -4.1353125 4.863125 -4.140625 4.140625 C-3.75603481 1.4258707 -2.7147543 0.38459019 0 0 Z " fill="#000000" transform="translate(31.875,35.734375)"/>
</svg>
