<svg width="25" height="25" viewBox="0 0 25 25" fill="none" xmlns="http://www.w3.org/2000/svg">
<path d="M19.8281 2.8125C20.9587 3.65644 21.7859 4.53388 22.5 5.75C22.6031 5.92306 22.7062 6.09612 22.8125 6.27442C23.8317 8.33756 23.9635 11.0487 23.3601 13.2634C22.4704 15.7335 20.8849 17.4442 18.6406 18.75C17.193 19.1563 15.8461 19.2861 14.4688 18.625C14.3141 18.5013 14.1594 18.3775 14 18.25C13.8266 18.3715 13.6532 18.493 13.4746 18.6182C12.1232 19.3303 10.3977 19.2646 8.94336 18.8359C7.83295 18.2685 7.07532 17.3341 6.5 16.25C5.83886 14.0897 6.38902 12.026 7.25 10C8.31546 8.21032 9.75464 6.69975 11.75 6C13.261 5.78653 14.8912 5.62543 16.2188 6.5C16.3941 6.665 16.5694 6.83 16.75 7C16.8892 6.86594 17.0284 6.73188 17.1719 6.59375C17.458 6.4236 17.458 6.4236 17.75 6.25C18.4375 6.45313 18.4375 6.45313 19 6.75C19.2054 8.55963 18.468 9.98647 17.7656 11.625C16.7243 13.9868 16.7243 13.9868 16.25 16.5C17.6329 16.3988 18.508 15.9318 19.5 15C20.7479 13.5222 21.3439 11.782 21.2021 9.84668C20.866 7.85109 20.0665 6.32283 18.5 5C15.9825 3.40288 13.3801 3.06561 10.4551 3.66211C7.88535 4.51384 6.26576 6.01723 4.85254 8.28906C3.79456 10.4226 3.6036 12.9389 4.18945 15.2461C5.2208 17.926 6.94116 19.8357 9.53516 21.0684C11.9544 22.0137 15.5336 21.8887 17.8896 20.8711C19.0656 20.1561 20.0377 19.2262 21 18.25C21.25 18 21.25 18 22 17.9688C22.75 18 22.75 18 23 18.25C23.0932 19.1227 23.1033 19.5935 22.6133 20.3359C19.6863 23.2007 16.5694 24.1039 12.5701 24.0914C10.8012 24.0593 9.31554 23.8782 7.75 23C7.55471 22.8911 7.35941 22.7822 7.1582 22.6699C4.42074 20.9832 2.5216 18.6268 1.60767 15.5154C1.06111 12.8989 1.27195 9.86784 2.5 7.5C2.60312 7.28827 2.70625 7.07655 2.8125 6.8584C4.35995 3.97892 6.74476 2.3902 9.75 1.25C13.1714 0.256756 16.8956 0.919601 19.8281 2.8125ZM9.6377 10.6807C8.78794 11.9286 8.5 13.2089 8.5 14.7031C8.81796 15.7166 9.12905 16.1385 10 16.75C10.7022 16.9117 11.3039 16.9412 12 16.75C13.1178 16.0354 13.59 15.2468 14.1562 14.0625C14.2307 13.9069 14.3051 13.7512 14.3818 13.5909C14.5922 13.1459 14.7963 12.698 15 12.25C15.0947 12.0421 15.1895 11.8343 15.2871 11.6201C15.684 10.6679 15.8913 9.97816 15.5 9C15.0977 8.49617 14.875 8.27644 14.2373 8.1416C12.1171 8.13794 10.9696 9.09474 9.6377 10.6807Z" fill="#F2F2F2"/>
</svg>
