<svg width="25" height="25" viewBox="0 0 25 25" fill="none" xmlns="http://www.w3.org/2000/svg">
<path d="M8.8955 23.418C9.251 23.265 9.5 22.9115 9.5 22.5V19.8C9.5 19.7015 9.508 19.599 9.5205 19.495C9.5135 19.497 9.507 19.4985 9.5 19.5C9.5 19.5 8 19.5 7.7 19.5C6.95 19.5 6.3 19.2 6 18.6C5.65 17.95 5.5 16.85 4.6 16.25C4.45 16.15 4.55 16 4.85 16C5.15 16.05 5.8 16.45 6.2 17C6.65 17.55 7.1 18 7.9 18C9.1435 18 9.81 17.9375 10.211 17.7225C10.678 17.028 11.3245 16.5 12 16.5V16.4875C9.166 16.3965 7.3555 15.4545 6.5125 14C4.68 14.021 3.0845 14.2025 2.174 14.3535C2.145 14.19 2.12 14.0255 2.0985 13.86C2.997 13.712 4.52 13.5365 6.271 13.503C6.215 13.365 6.1665 13.2235 6.1255 13.0785C4.37 12.9895 2.855 13.059 2.032 13.127C2.022 12.961 2.0085 12.7955 2.0065 12.6275C2.831 12.56 4.305 12.4925 6.0155 12.572C5.976 12.322 5.9505 12.0665 5.9505 11.8005C5.9505 10.9505 6.2505 10.0505 6.8005 9.3005C6.5505 8.4505 6.2005 6.6505 6.9005 6.0005C8.2505 6.0005 9.2005 6.6505 9.6505 7.0505C10.5 6.7 11.45 6.5 12.5 6.5C13.55 6.5 14.5 6.7 15.3 7.05C15.75 6.65 16.7 6 18.05 6C18.8 6.7 18.4 8.5 18.15 9.3C18.7 10.05 19 10.9 18.95 11.8C18.95 12.042 18.9275 12.2755 18.895 12.5045C20.6445 12.4185 22.1585 12.4875 22.997 12.5555C22.996 12.724 22.9805 12.8885 22.9715 13.055C22.136 12.986 20.584 12.915 18.792 13.0105C18.7475 13.1785 18.6935 13.342 18.6295 13.5005C20.4025 13.5235 21.962 13.695 22.9035 13.845C22.882 14.011 22.857 14.1755 22.828 14.3385C21.872 14.1855 20.2425 14.0065 18.3885 13.9975C17.556 15.4365 15.7785 16.375 13 16.4845V16.5C14.3 16.5 15.5 18.45 15.5 19.8V22.5C15.5 22.9115 15.749 23.265 16.1045 23.418C20.685 21.902 24 17.582 24 12.5C24 6.159 18.8415 1 12.5 1C6.1585 1 1 6.159 1 12.5C1 17.582 4.315 21.902 8.8955 23.418Z" fill="#F2F2F2"/>
</svg>
