<svg width="25" height="25" viewBox="0 0 25 25" fill="none" xmlns="http://www.w3.org/2000/svg">
<g clip-path="url(#clip0_4_22)">
<path d="M22.0238 0H2.97619C1.33333 0 0 1.33333 0 2.97619V22.0238C0 23.6667 1.33333 25 2.97619 25H22.0238C23.6667 25 25 23.6667 25 22.0238V2.97619C25 1.33333 23.6667 0 22.0238 0ZM7.7381 9.52381V20.8333H4.16667V9.52381H7.7381ZM4.16667 6.23214C4.16667 5.39881 4.88095 4.7619 5.95238 4.7619C7.02381 4.7619 7.69643 5.39881 7.7381 6.23214C7.7381 7.06548 7.07143 7.7381 5.95238 7.7381C4.88095 7.7381 4.16667 7.06548 4.16667 6.23214ZM20.8333 20.8333H17.2619C17.2619 20.8333 17.2619 15.3214 17.2619 14.881C17.2619 13.6905 16.6667 12.5 15.1786 12.4762H15.131C13.6905 12.4762 13.0952 13.7024 13.0952 14.881C13.0952 15.4226 13.0952 20.8333 13.0952 20.8333H9.52381V9.52381H13.0952V11.0476C13.0952 11.0476 14.244 9.52381 16.5536 9.52381C18.9167 9.52381 20.8333 11.1488 20.8333 14.4405V20.8333Z" fill="#F2F2F2"/>
</g>
<defs>
<clipPath id="clip0_4_22">
<rect width="25" height="25" fill="white"/>
</clipPath>
</defs>
</svg>
