<svg width="25" height="25" viewBox="0 0 25 25" fill="none" xmlns="http://www.w3.org/2000/svg">
<path d="M12.5045 0.990997C6.161 0.990997 1 6.152 1 12.4955C1 18.839 6.161 24 12.5045 24C18.848 24 24.009 18.8395 24.009 12.4955C24.009 6.1515 18.848 0.990997 12.5045 0.990997ZM17.374 17.6665C17.2295 17.8835 16.9915 18.0005 16.749 18.0005C16.606 18.0005 16.4615 17.96 16.3335 17.8745C15.097 17.05 13 16.5 11.25 16.5005C9.393 16.5015 8.001 16.9575 7.987 16.962C7.595 17.095 7.1695 16.881 7.0385 16.488C6.9075 16.095 7.12 15.67 7.513 15.5395C7.579 15.5175 9.1525 15.002 11.25 15.001C13 15 15.434 15.472 17.166 16.6265C17.511 16.8565 17.604 17.322 17.374 17.6665ZM18.87 14.5965C18.7075 14.8575 18.427 15.001 18.1405 15.001C17.9855 15.001 17.8285 14.9595 17.6875 14.871C15.4455 13.474 13.1415 13.1785 11.1565 13.196C8.9155 13.216 7.1235 13.6435 7.093 13.6525C6.6395 13.7815 6.1625 13.5165 6.033 13.061C5.9035 12.6045 6.169 12.13 6.625 12.001C6.7635 11.9615 8.552 11.5215 11.0005 11.501C13.233 11.4825 16.015 11.806 18.596 13.414C18.9975 13.664 19.121 14.194 18.87 14.5965ZM20.3625 11.0065C20.176 11.3235 19.842 11.5 19.499 11.5C19.327 11.5 19.153 11.4555 18.9935 11.3625C16.3805 9.8285 13.2035 9.503 10.9985 9.5C10.988 9.5 10.9775 9.5 10.967 9.5C8.3005 9.5 6.247 9.969 6.2265 9.974C5.6875 10.0975 5.151 9.7645 5.026 9.2265C4.901 8.689 5.2345 8.152 5.772 8.0265C5.8645 8.005 8.0585 7.5 10.967 7.5C10.9785 7.5 10.99 7.5 11.0015 7.5C13.454 7.5035 17.007 7.8765 20.0065 9.6375C20.4825 9.9175 20.642 10.5305 20.3625 11.0065Z" fill="#F2F2F2"/>
</svg>
