<svg width="17" height="15" viewBox="0 0 17 15" fill="none" xmlns="http://www.w3.org/2000/svg">
<path d="M3.11082 0.0863884C3.51103 0.0747063 3.51103 0.0747063 3.91933 0.0627882C6.12604 0.0421325 6.12604 0.0421325 6.89093 0.664188C7.46074 1.34796 7.57664 1.6579 7.59039 2.52413C7.59387 2.71045 7.59736 2.89677 7.60095 3.08873C7.60377 3.29034 7.6066 3.49195 7.60952 3.69967C7.61527 4.00944 7.61527 4.00944 7.62114 4.32546C7.63756 5.21157 7.65165 6.09772 7.66597 6.98387C7.67674 7.62961 7.68867 8.27531 7.70066 8.92102C7.70349 9.12263 7.70632 9.32424 7.70923 9.53196C7.71272 9.71828 7.7162 9.9046 7.71979 10.0966C7.7224 10.2609 7.72501 10.4253 7.7277 10.5946C7.73517 11.015 7.73517 11.015 7.96759 11.4145C8.24259 11.4145 8.51759 11.4145 8.80092 11.4145C9.04322 10.9299 9.03518 10.6492 9.0355 10.1098C9.03629 9.92616 9.03709 9.74253 9.0379 9.55334C9.03812 9.35434 9.03833 9.15535 9.03855 8.95032C9.04237 8.53013 9.04645 8.10993 9.05076 7.68974C9.05679 7.02635 9.06134 6.36311 9.06144 5.69969C9.06214 5.06001 9.06934 4.42067 9.07762 3.78105C9.07614 3.58374 9.07467 3.38643 9.07315 3.18315C9.09017 2.25608 9.12508 1.6132 9.72113 0.87598C10.5195 0.129503 10.9093 0.137894 11.9853 0.136844C12.2462 0.136576 12.5071 0.136307 12.7759 0.13603C13.0497 0.136836 13.3235 0.137642 13.6056 0.138472C13.8802 0.137666 14.1548 0.13686 14.4377 0.13603C14.6984 0.136299 14.959 0.136567 15.2275 0.136844C15.4682 0.137079 15.7088 0.137314 15.9567 0.137556C16.5093 0.164513 16.5093 0.164513 16.7176 0.372847C16.7383 0.774434 16.7443 1.17678 16.7445 1.5789C16.7452 1.83681 16.7459 2.09473 16.7465 2.36046C16.7462 2.6441 16.7457 2.92774 16.7453 3.21139C16.7454 3.50019 16.7456 3.78898 16.7459 4.07778C16.7462 4.68376 16.7457 5.28974 16.7448 5.89572C16.7436 6.67409 16.7442 7.45245 16.7455 8.23082C16.7462 8.82739 16.746 9.42395 16.7455 10.0205C16.7453 10.3076 16.7455 10.5947 16.746 10.8817C16.7465 11.2823 16.7456 11.6829 16.7445 12.0835C16.7444 12.3118 16.7442 12.5402 16.744 12.7755C16.7176 13.2895 16.7176 13.2895 16.5093 13.4978C16.0143 13.5163 15.5255 13.5219 15.0306 13.5182C14.8091 13.5178 14.8091 13.5178 14.5831 13.5173C14.1097 13.5161 13.6363 13.5135 13.1629 13.5109C12.8427 13.5098 12.5224 13.5089 12.2022 13.508C11.4157 13.5057 10.6291 13.5021 9.84259 13.4978C9.73946 13.8072 9.73946 13.8072 9.63426 14.1228C8.98278 14.4486 8.26346 14.4144 7.55092 14.3312C7.34467 14.1937 7.13842 14.0562 6.92592 13.9145C6.92592 13.777 6.92592 13.6395 6.92592 13.4978C6.72506 13.4989 6.5242 13.5 6.31725 13.5012C5.57452 13.5049 4.83179 13.5073 4.08906 13.5093C3.76713 13.5103 3.4452 13.5118 3.12328 13.5136C2.6615 13.5161 2.19972 13.5173 1.73793 13.5182C1.52081 13.5198 1.52081 13.5198 1.2993 13.5215C0.952528 13.5215 0.605786 13.5107 0.259256 13.4978C-0.111403 13.1272 0.0243291 12.5847 0.0239653 12.0835C0.0233086 11.8255 0.0226519 11.5676 0.0219753 11.3019C0.0223482 11.0183 0.0227755 10.7346 0.0232532 10.451C0.023113 10.1622 0.0229109 9.87338 0.0226492 9.58458C0.0223416 8.9786 0.0227902 8.37263 0.0237619 7.76665C0.0249488 6.98827 0.0242656 6.20991 0.0230176 5.43154C0.0222663 4.83497 0.0225037 4.23841 0.0230442 3.64185C0.0231836 3.35477 0.0230112 3.0677 0.0225277 2.78062C0.0220011 2.38005 0.0229454 1.97947 0.0239653 1.5789C0.0241311 1.35053 0.0242968 1.12216 0.0244676 0.886864C0.0908149 -0.40226 2.13042 0.0970819 3.11082 0.0863884Z" fill="#777777"/>
</svg>
