<svg width="16" height="12" viewBox="0 0 16 12" fill="none" xmlns="http://www.w3.org/2000/svg">
<path d="M14.1772 2.05902C14.7834 2.91635 14.8918 3.82355 15.0664 4.84444C15.1034 5.04496 15.1405 5.24548 15.1787 5.45208C15.2474 5.82506 15.3147 6.1983 15.38 6.57187C15.4378 6.89637 15.4995 7.22019 15.5656 7.54309C15.7472 8.46796 15.8962 9.5955 15.4597 10.4583C15.0431 10.961 14.6712 11.2887 14.0217 11.3944C13.3034 11.4387 12.8035 11.4548 12.1827 11.0618C11.8301 10.7513 11.5016 10.434 11.1833 10.0889C10.6959 9.60347 9.31802 9.83873 8.61913 9.82934C8.35174 9.82462 8.08438 9.81737 7.81713 9.80746C6.26779 9.70641 6.26779 9.70641 4.84286 10.1882C4.53875 10.4953 4.2931 10.8056 4.04209 11.1556C3.37712 11.4866 2.62367 11.4349 1.89971 11.3333C1.34167 11.0361 0.93693 10.6603 0.649997 10.0889C0.514584 8.52227 0.764139 7.00904 1.06843 5.47907C1.14172 5.10723 1.2098 4.73466 1.27765 4.3618C1.32383 4.12262 1.37031 3.8835 1.41712 3.64444C1.45826 3.43086 1.4994 3.21727 1.54178 2.99722C1.74005 2.38631 1.9312 2.12573 2.43531 1.73333C2.89767 1.58918 3.30017 1.49408 3.77429 1.42222C3.91132 1.40076 4.04836 1.37931 4.18954 1.3572C6.9858 0.974833 11.6932 0.422774 14.1772 2.05902ZM4.04209 4.57777C3.98317 4.87111 3.92426 5.16444 3.86356 5.46666C3.56898 5.52533 3.2744 5.58399 2.9709 5.64444C2.9709 5.87911 2.9709 6.11377 2.9709 6.35555C3.41277 6.44355 3.41277 6.44355 3.86356 6.53333C3.92247 6.82666 3.98139 7.11999 4.04209 7.42222C4.27775 7.42222 4.51341 7.42222 4.75621 7.42222C4.81513 7.12888 4.87404 6.83555 4.93474 6.53333C5.22932 6.47466 5.5239 6.41599 5.8274 6.35555C5.8274 6.12088 5.8274 5.88622 5.8274 5.64444C5.53282 5.58577 5.23825 5.52711 4.93474 5.46666C4.87583 5.17333 4.81691 4.87999 4.75621 4.57777C4.52055 4.57777 4.28489 4.57777 4.04209 4.57777ZM11.5404 4.57777C11.5404 4.81244 11.5404 5.04711 11.5404 5.28888C11.7761 5.28888 12.0117 5.28888 12.2545 5.28888C12.2545 5.05422 12.2545 4.81955 12.2545 4.57777C12.0189 4.57777 11.7832 4.57777 11.5404 4.57777ZM10.4692 5.64444C10.4692 5.87911 10.4692 6.11377 10.4692 6.35555C10.7049 6.35555 10.9405 6.35555 11.1833 6.35555C11.1833 6.12088 11.1833 5.88622 11.1833 5.64444C10.9477 5.64444 10.712 5.64444 10.4692 5.64444ZM12.6116 5.64444C12.6116 5.87911 12.6116 6.11377 12.6116 6.35555C12.8472 6.35555 13.0829 6.35555 13.3257 6.35555C13.3257 6.12088 13.3257 5.88622 13.3257 5.64444C13.09 5.64444 12.8544 5.64444 12.6116 5.64444ZM11.5404 6.71111C11.5404 6.94577 11.5404 7.18044 11.5404 7.42222C11.7761 7.42222 12.0117 7.42222 12.2545 7.42222C12.2545 7.18755 12.2545 6.95288 12.2545 6.71111C12.0189 6.71111 11.7832 6.71111 11.5404 6.71111Z" fill="#F2F2F2"/>
</svg>
