<svg width="19" height="19" viewBox="0 0 19 19" fill="none" xmlns="http://www.w3.org/2000/svg">
<path d="M12.5192 0.900991C14.1034 1.84564 15.0931 3.15534 15.58 4.93998C16.0346 10.0991 13.312 14.4562 10.1457 18.3045C10.058 18.4086 9.97033 18.5127 9.87999 18.62C9.29829 18.5588 8.99829 18.4937 8.56484 18.0893C5.64512 14.265 2.85058 9.9449 3.41999 4.93998C3.78276 3.30958 4.69337 2.0859 6.07999 1.1756C7.93411 0.0438142 10.5601 -0.0391043 12.5192 0.900991ZM7.59999 5.69998C7.29328 6.31341 7.29681 6.93686 7.40999 7.59998C7.73984 8.17474 8.13879 8.62938 8.73999 8.92998C9.7135 9.04536 9.7135 9.04536 10.6066 8.73107C11.3292 8.13617 11.5685 7.81537 11.6612 6.88748C11.6566 6.25087 11.5436 5.91868 11.1387 5.42685C10.4681 4.77215 10.0836 4.67482 9.14003 4.68169C8.43296 4.80238 8.0934 5.19454 7.59999 5.69998Z" fill="#777777"/>
</svg>
