<svg width="16" height="16" viewBox="0 0 16 16" fill="none" xmlns="http://www.w3.org/2000/svg">
<path d="M12.3762 1.1999C13.3414 2.10178 13.3414 2.10178 14.0547 3.04992C14.2417 3.27885 14.4286 3.50779 14.6212 3.74367C15.735 5.73121 15.7845 7.7128 15.7319 9.97301C15.7051 10.8562 15.7051 10.8562 15.943 11.8375C16.1249 13.0404 15.8522 13.7923 15.3975 14.89C14.7891 15.6069 14.7891 15.6069 14.0547 16C12.9233 15.9109 12.5145 15.7824 11.7048 14.89C11.5941 15.0121 11.4833 15.1342 11.3691 15.26C10.5509 15.3294 10.5509 15.3294 9.69065 15.26C9.01926 14.52 9.01926 14.52 8.99172 13.7583C9.02158 13.4678 9.05144 13.1774 9.0822 12.8781C9.10774 12.5886 9.13327 12.2991 9.15957 12.0008C9.38799 11.0529 9.66013 10.6717 10.362 10.08C11.0544 10.1262 11.0544 10.1262 11.7048 10.45C11.9264 10.8163 12.148 11.1826 12.3762 11.56C12.7492 9.09866 12.8439 7.46698 11.7048 5.26993C10.9672 4.19825 10.1978 3.75879 9.01926 3.41992C7.43299 3.44494 6.03392 3.62075 4.6552 4.52992C3.42829 6.33299 3.2173 8.02706 3.45928 10.2187C3.5216 10.6613 3.58391 11.1039 3.64811 11.56C3.75889 11.1937 3.86967 10.8274 3.98381 10.45C4.76011 10.1956 4.76011 10.1956 5.66229 10.08C6.37784 10.6629 6.63526 11.0483 6.86477 12.0008C6.8903 12.2903 6.91583 12.5798 6.94214 12.8781C6.972 13.1686 7.00185 13.459 7.03262 13.7583C7.00508 14.52 7.00508 14.52 6.33369 15.26C5.49444 15.3062 5.49444 15.3062 4.6552 15.26C4.43364 15.26 4.21208 15.26 3.98381 15.26C3.76225 15.5042 3.54069 15.7484 3.31241 16C2.04386 15.8896 1.13528 15.5833 0.291142 14.52C-0.0846013 12.8281 -0.109297 11.3864 0.291142 9.70996C0.277295 9.32076 0.263447 8.93157 0.24918 8.53058C0.316499 6.26755 0.778587 4.46547 2.11649 2.72616C2.40037 2.4667 2.68424 2.20723 2.97672 1.93991C3.18443 1.73386 3.39214 1.52782 3.60615 1.31553C6.34358 -0.548021 9.57281 -0.288924 12.3762 1.1999Z" fill="#777777"/>
</svg>
